<svg width="54" height="55" viewBox="0 0 54 55" fill="none" xmlns="http://www.w3.org/2000/svg">
<path d="M53.2203 27.325C53.2203 12.7861 41.4342 1 26.8953 1C12.3564 1 0.570312 12.7861 0.570312 27.325C0.570312 41.8639 12.3564 53.65 26.8953 53.65C41.4342 53.65 53.2203 41.8639 53.2203 27.325Z" fill="#FEE500" stroke="#FEE500"/>
<g clip-path="url(#clip0_77_1351)">
<path fill-rule="evenodd" clip-rule="evenodd" d="M26.5704 17.6665C21.0472 17.6665 16.5703 21.1254 16.5703 25.3913C16.5703 28.0444 18.3019 30.3832 20.9387 31.7743L19.8292 35.8271C19.7312 36.1852 20.1408 36.4707 20.4553 36.2632L25.3185 33.0535C25.7289 33.0931 26.146 33.1162 26.5704 33.1162C32.0931 33.1162 36.5703 29.6575 36.5703 25.3913C36.5703 21.1254 32.0931 17.6665 26.5704 17.6665" fill="black"/>
</g>
<defs>
<clipPath id="clip0_77_1351">
<rect width="20" height="20.0001" fill="white" transform="translate(16.5703 17)"/>
</clipPath>
</defs>
</svg>
